<mxfile host="app.diagrams.net" agent="Mozilla/5.0 (Windows NT 10.0; Win64; x64) AppleWebKit/537.36 (KHTML, like Gecko) Chrome/131.0.0.0 Safari/537.36" version="25.0.1">
  <diagram name="Seite-1" id="80uyVqIYvpW1T4vl3ESV">
    <mxGraphModel dx="1290" dy="570" grid="1" gridSize="10" guides="1" tooltips="1" connect="1" arrows="1" fold="1" page="1" pageScale="1" pageWidth="827" pageHeight="1169" math="0" shadow="0">
      <root>
        <mxCell id="0" />
        <mxCell id="1" parent="0" />
        <mxCell id="OMDrGrxvpZQQUCGHlyxJ-1" value=":Main" style="shape=umlLifeline;perimeter=lifelinePerimeter;whiteSpace=wrap;html=1;container=1;dropTarget=0;collapsible=0;recursiveResize=0;outlineConnect=0;portConstraint=eastwest;newEdgeStyle={&quot;curved&quot;:0,&quot;rounded&quot;:0};" vertex="1" parent="1">
          <mxGeometry x="80" y="40" width="100" height="590" as="geometry" />
        </mxCell>
        <mxCell id="OMDrGrxvpZQQUCGHlyxJ-7" value="" style="html=1;points=[[0,0,0,0,5],[0,1,0,0,-5],[1,0,0,0,5],[1,1,0,0,-5]];perimeter=orthogonalPerimeter;outlineConnect=0;targetShapes=umlLifeline;portConstraint=eastwest;newEdgeStyle={&quot;curved&quot;:0,&quot;rounded&quot;:0};" vertex="1" parent="OMDrGrxvpZQQUCGHlyxJ-1">
          <mxGeometry x="45" y="60" width="10" height="510" as="geometry" />
        </mxCell>
        <mxCell id="OMDrGrxvpZQQUCGHlyxJ-2" value=":DataManager" style="shape=umlLifeline;perimeter=lifelinePerimeter;whiteSpace=wrap;html=1;container=1;dropTarget=0;collapsible=0;recursiveResize=0;outlineConnect=0;portConstraint=eastwest;newEdgeStyle={&quot;curved&quot;:0,&quot;rounded&quot;:0};" vertex="1" parent="1">
          <mxGeometry x="200" y="40" width="100" height="590" as="geometry" />
        </mxCell>
        <mxCell id="OMDrGrxvpZQQUCGHlyxJ-8" value="" style="html=1;points=[[0,0,0,0,5],[0,1,0,0,-5],[1,0,0,0,5],[1,1,0,0,-5]];perimeter=orthogonalPerimeter;outlineConnect=0;targetShapes=umlLifeline;portConstraint=eastwest;newEdgeStyle={&quot;curved&quot;:0,&quot;rounded&quot;:0};" vertex="1" parent="OMDrGrxvpZQQUCGHlyxJ-2">
          <mxGeometry x="45" y="60" width="10" height="80" as="geometry" />
        </mxCell>
        <mxCell id="OMDrGrxvpZQQUCGHlyxJ-27" value="" style="html=1;points=[[0,0,0,0,5],[0,1,0,0,-5],[1,0,0,0,5],[1,1,0,0,-5]];perimeter=orthogonalPerimeter;outlineConnect=0;targetShapes=umlLifeline;portConstraint=eastwest;newEdgeStyle={&quot;curved&quot;:0,&quot;rounded&quot;:0};" vertex="1" parent="OMDrGrxvpZQQUCGHlyxJ-2">
          <mxGeometry x="45" y="505" width="10" height="65" as="geometry" />
        </mxCell>
        <mxCell id="OMDrGrxvpZQQUCGHlyxJ-3" value=":Solver" style="shape=umlLifeline;perimeter=lifelinePerimeter;whiteSpace=wrap;html=1;container=1;dropTarget=0;collapsible=0;recursiveResize=0;outlineConnect=0;portConstraint=eastwest;newEdgeStyle={&quot;curved&quot;:0,&quot;rounded&quot;:0};" vertex="1" parent="1">
          <mxGeometry x="320" y="40" width="100" height="530" as="geometry" />
        </mxCell>
        <mxCell id="OMDrGrxvpZQQUCGHlyxJ-12" value="" style="html=1;points=[[0,0,0,0,5],[0,1,0,0,-5],[1,0,0,0,5],[1,1,0,0,-5]];perimeter=orthogonalPerimeter;outlineConnect=0;targetShapes=umlLifeline;portConstraint=eastwest;newEdgeStyle={&quot;curved&quot;:0,&quot;rounded&quot;:0};" vertex="1" parent="OMDrGrxvpZQQUCGHlyxJ-3">
          <mxGeometry x="45" y="155" width="10" height="335" as="geometry" />
        </mxCell>
        <mxCell id="OMDrGrxvpZQQUCGHlyxJ-4" value=":PermutationUtil" style="shape=umlLifeline;perimeter=lifelinePerimeter;whiteSpace=wrap;html=1;container=1;dropTarget=0;collapsible=0;recursiveResize=0;outlineConnect=0;portConstraint=eastwest;newEdgeStyle={&quot;curved&quot;:0,&quot;rounded&quot;:0};" vertex="1" parent="1">
          <mxGeometry x="560" y="40" width="100" height="330" as="geometry" />
        </mxCell>
        <mxCell id="OMDrGrxvpZQQUCGHlyxJ-19" value="" style="html=1;points=[[0,0,0,0,5],[0,1,0,0,-5],[1,0,0,0,5],[1,1,0,0,-5]];perimeter=orthogonalPerimeter;outlineConnect=0;targetShapes=umlLifeline;portConstraint=eastwest;newEdgeStyle={&quot;curved&quot;:0,&quot;rounded&quot;:0};" vertex="1" parent="OMDrGrxvpZQQUCGHlyxJ-4">
          <mxGeometry x="45" y="250" width="10" height="60" as="geometry" />
        </mxCell>
        <mxCell id="OMDrGrxvpZQQUCGHlyxJ-5" value=":AuftragListe" style="shape=umlLifeline;perimeter=lifelinePerimeter;whiteSpace=wrap;html=1;container=1;dropTarget=0;collapsible=0;recursiveResize=0;outlineConnect=0;portConstraint=eastwest;newEdgeStyle={&quot;curved&quot;:0,&quot;rounded&quot;:0};" vertex="1" parent="1">
          <mxGeometry x="440" y="40" width="100" height="490" as="geometry" />
        </mxCell>
        <mxCell id="OMDrGrxvpZQQUCGHlyxJ-30" value="" style="html=1;points=[[0,0,0,0,5],[0,1,0,0,-5],[1,0,0,0,5],[1,1,0,0,-5]];perimeter=orthogonalPerimeter;outlineConnect=0;targetShapes=umlLifeline;portConstraint=eastwest;newEdgeStyle={&quot;curved&quot;:0,&quot;rounded&quot;:0};" vertex="1" parent="OMDrGrxvpZQQUCGHlyxJ-5">
          <mxGeometry x="44" y="180" width="10" height="30" as="geometry" />
        </mxCell>
        <mxCell id="OMDrGrxvpZQQUCGHlyxJ-9" value="lies Daten" style="html=1;verticalAlign=bottom;endArrow=block;curved=0;rounded=0;" edge="1" parent="1" source="OMDrGrxvpZQQUCGHlyxJ-7">
          <mxGeometry relative="1" as="geometry">
            <mxPoint x="450" y="265" as="sourcePoint" />
            <mxPoint x="240" y="115" as="targetPoint" />
          </mxGeometry>
        </mxCell>
        <mxCell id="OMDrGrxvpZQQUCGHlyxJ-10" value="return" style="html=1;verticalAlign=bottom;endArrow=open;dashed=1;endSize=8;curved=0;rounded=0;" edge="1" parent="1" target="OMDrGrxvpZQQUCGHlyxJ-7">
          <mxGeometry x="0.0095" relative="1" as="geometry">
            <mxPoint x="450" y="335" as="targetPoint" />
            <mxPoint x="240" y="165" as="sourcePoint" />
            <mxPoint as="offset" />
          </mxGeometry>
        </mxCell>
        <mxCell id="OMDrGrxvpZQQUCGHlyxJ-13" value="loese Daten" style="html=1;verticalAlign=bottom;endArrow=block;curved=0;rounded=0;entryX=0;entryY=0;entryDx=0;entryDy=5;entryPerimeter=0;" edge="1" target="OMDrGrxvpZQQUCGHlyxJ-12" parent="1" source="OMDrGrxvpZQQUCGHlyxJ-7">
          <mxGeometry relative="1" as="geometry">
            <mxPoint x="440" y="195" as="sourcePoint" />
          </mxGeometry>
        </mxCell>
        <mxCell id="OMDrGrxvpZQQUCGHlyxJ-14" value="return Ergebnis" style="html=1;verticalAlign=bottom;endArrow=open;dashed=1;endSize=8;curved=0;rounded=0;exitX=0;exitY=1;exitDx=0;exitDy=-5;exitPerimeter=0;" edge="1" source="OMDrGrxvpZQQUCGHlyxJ-12" parent="1" target="OMDrGrxvpZQQUCGHlyxJ-7">
          <mxGeometry relative="1" as="geometry">
            <mxPoint x="440" y="265" as="targetPoint" />
          </mxGeometry>
        </mxCell>
        <mxCell id="OMDrGrxvpZQQUCGHlyxJ-17" value="" style="shape=umlDestroy;whiteSpace=wrap;html=1;strokeWidth=3;targetShapes=umlLifeline;" vertex="1" parent="1">
          <mxGeometry x="353.75" y="555" width="32.5" height="30" as="geometry" />
        </mxCell>
        <mxCell id="OMDrGrxvpZQQUCGHlyxJ-18" value="par" style="shape=umlFrame;whiteSpace=wrap;html=1;pointerEvents=0;" vertex="1" parent="1">
          <mxGeometry x="290" y="260" width="360" height="250" as="geometry" />
        </mxCell>
        <mxCell id="OMDrGrxvpZQQUCGHlyxJ-20" value="&lt;font style=&quot;font-size: 10px;&quot;&gt;erzeuge Permutationen&lt;/font&gt;" style="html=1;verticalAlign=bottom;endArrow=block;curved=0;rounded=0;entryX=0;entryY=0;entryDx=0;entryDy=5;entryPerimeter=0;" edge="1" target="OMDrGrxvpZQQUCGHlyxJ-19" parent="1" source="OMDrGrxvpZQQUCGHlyxJ-12">
          <mxGeometry relative="1" as="geometry">
            <mxPoint x="382.5" y="285" as="sourcePoint" />
            <mxPoint as="offset" />
          </mxGeometry>
        </mxCell>
        <mxCell id="OMDrGrxvpZQQUCGHlyxJ-21" value="return" style="html=1;verticalAlign=bottom;endArrow=open;dashed=1;endSize=8;curved=0;rounded=0;exitX=0;exitY=1;exitDx=0;exitDy=-5;exitPerimeter=0;" edge="1" source="OMDrGrxvpZQQUCGHlyxJ-19" parent="1" target="OMDrGrxvpZQQUCGHlyxJ-12">
          <mxGeometry relative="1" as="geometry">
            <mxPoint x="382.5" y="355" as="targetPoint" />
          </mxGeometry>
        </mxCell>
        <mxCell id="OMDrGrxvpZQQUCGHlyxJ-22" value="" style="html=1;points=[[0,0,0,0,5],[0,1,0,0,-5],[1,0,0,0,5],[1,1,0,0,-5]];perimeter=orthogonalPerimeter;outlineConnect=0;targetShapes=umlLifeline;portConstraint=eastwest;newEdgeStyle={&quot;curved&quot;:0,&quot;rounded&quot;:0};" vertex="1" parent="1">
          <mxGeometry x="370" y="390" width="10" height="100" as="geometry" />
        </mxCell>
        <mxCell id="OMDrGrxvpZQQUCGHlyxJ-23" value="suche geeignete Permutation" style="html=1;align=left;spacingLeft=2;endArrow=block;rounded=0;edgeStyle=orthogonalEdgeStyle;curved=0;rounded=0;" edge="1" target="OMDrGrxvpZQQUCGHlyxJ-22" parent="1">
          <mxGeometry relative="1" as="geometry">
            <mxPoint x="375" y="370" as="sourcePoint" />
            <Array as="points">
              <mxPoint x="405" y="400" />
            </Array>
          </mxGeometry>
        </mxCell>
        <mxCell id="OMDrGrxvpZQQUCGHlyxJ-24" value="" style="html=1;points=[[0,0,0,0,5],[0,1,0,0,-5],[1,0,0,0,5],[1,1,0,0,-5]];perimeter=orthogonalPerimeter;outlineConnect=0;targetShapes=umlLifeline;portConstraint=eastwest;newEdgeStyle={&quot;curved&quot;:0,&quot;rounded&quot;:0};" vertex="1" parent="1">
          <mxGeometry x="375" y="440" width="10" height="40" as="geometry" />
        </mxCell>
        <mxCell id="OMDrGrxvpZQQUCGHlyxJ-25" value="erzeuge Ergebnis" style="html=1;align=left;spacingLeft=2;endArrow=block;rounded=0;edgeStyle=orthogonalEdgeStyle;curved=0;rounded=0;" edge="1" target="OMDrGrxvpZQQUCGHlyxJ-24" parent="1">
          <mxGeometry relative="1" as="geometry">
            <mxPoint x="380" y="420" as="sourcePoint" />
            <Array as="points">
              <mxPoint x="410" y="450" />
            </Array>
          </mxGeometry>
        </mxCell>
        <mxCell id="OMDrGrxvpZQQUCGHlyxJ-26" value="" style="shape=umlDestroy;whiteSpace=wrap;html=1;strokeWidth=3;targetShapes=umlLifeline;" vertex="1" parent="1">
          <mxGeometry x="475" y="520" width="30" height="30" as="geometry" />
        </mxCell>
        <mxCell id="OMDrGrxvpZQQUCGHlyxJ-29" value="return success" style="html=1;verticalAlign=bottom;endArrow=open;dashed=1;endSize=8;curved=0;rounded=0;exitX=0;exitY=1;exitDx=0;exitDy=-5;entryX=1;entryY=1;entryDx=0;entryDy=-5;entryPerimeter=0;" edge="1" source="OMDrGrxvpZQQUCGHlyxJ-27" parent="1" target="OMDrGrxvpZQQUCGHlyxJ-7">
          <mxGeometry relative="1" as="geometry">
            <mxPoint x="175" y="620" as="targetPoint" />
          </mxGeometry>
        </mxCell>
        <mxCell id="OMDrGrxvpZQQUCGHlyxJ-28" value="schreibe Ergebnis" style="html=1;verticalAlign=bottom;endArrow=block;curved=0;rounded=0;entryX=0;entryY=0;entryDx=0;entryDy=5;" edge="1" target="OMDrGrxvpZQQUCGHlyxJ-27" parent="1" source="OMDrGrxvpZQQUCGHlyxJ-7">
          <mxGeometry relative="1" as="geometry">
            <mxPoint x="175" y="550" as="sourcePoint" />
          </mxGeometry>
        </mxCell>
        <mxCell id="OMDrGrxvpZQQUCGHlyxJ-31" value="erzeuge Aufträge" style="html=1;verticalAlign=bottom;endArrow=block;curved=0;rounded=0;entryX=0;entryY=0;entryDx=0;entryDy=5;" edge="1" target="OMDrGrxvpZQQUCGHlyxJ-30" parent="1" source="OMDrGrxvpZQQUCGHlyxJ-12">
          <mxGeometry relative="1" as="geometry">
            <mxPoint x="414" y="175" as="sourcePoint" />
          </mxGeometry>
        </mxCell>
        <mxCell id="OMDrGrxvpZQQUCGHlyxJ-32" value="return" style="html=1;verticalAlign=bottom;endArrow=open;dashed=1;endSize=8;curved=0;rounded=0;exitX=0;exitY=1;exitDx=0;exitDy=-5;" edge="1" source="OMDrGrxvpZQQUCGHlyxJ-30" parent="1" target="OMDrGrxvpZQQUCGHlyxJ-12">
          <mxGeometry relative="1" as="geometry">
            <mxPoint x="414" y="245" as="targetPoint" />
          </mxGeometry>
        </mxCell>
      </root>
    </mxGraphModel>
  </diagram>
</mxfile>
